/* XPM */
static char *cg_S3[] = {
"16 16 4 1 ",
"  c #444444",
"# c #222222",
"W c #0862f8",
"L c #f83808",
"################",
"#              #",
"#              #",
"#  ####  ####  #",
"#  #  #  #  #  #",
"#  #  #  #  #  #",
"#  ####  ####  #",
"#  #  #  #  #  #",
"#  #WW#  #LL#  #",
"#  ####  ####  #",
"#  #WW#  #LL#  #",
"#  #WW#  #LL#  #",
"#  ####  ####  #",
"#              #",
"#              #",
"################"};
