/* XPM */
static char *cg_UD[] = {
"16 16 3 1 ",
"X c #666666",
"  c #444444",
"# c #222222",
"################",
"#              #",
"#              #",
"#              #",
"#              #",
"#    ######    #",
"#    #    #    #",
"#    # XX #    #",
"#    # XX #    #",
"#    #    #    #",
"#    ######    #",
"#              #",
"#              #",
"#              #",
"#              #",
"################"};
